<svg role="img" aria-label="Alineación confirmada" xmlns="http://www.w3.org/2000/svg" xmlns:xlink="http://www.w3.org/1999/xlink" width="24px" height="24px" viewBox="0 0 24 24" version="1.1"><title>Alineación confirmada</title><g id="Icons/Directos/lineUp" stroke="none" stroke-width="1" fill="none" fill-rule="evenodd"><circle id="Oval" fill="#1D1E1F" cx="12" cy="12" r="12"></circle><g id="Group-2" transform="translate(5.000000, 5.000000)"><g id="Group" fill="#F8F8F8"><g id="Group-Copy-11" transform="translate(2.437543, 2.719157)"><path d="M0.413239675,0 L7.71190294,0 C7.94012891,4.40843225e-16 8.12514261,0.185013704 8.12514261,0.413239675 C8.12514261,0.641465645 7.94012891,0.82647935 7.71190294,0.82647935 L0.413239675,0.82647935 C0.185013704,0.82647935 2.79496204e-17,0.641465645 0,0.413239675 C-2.79496204e-17,0.185013704 0.185013704,4.19244306e-17 0.413239675,0 Z" id="Rectangle-3"></path><path d="M0.413239675,2 L5.58676033,2 C5.8149863,2 6,2.1850137 6,2.41323967 C6,2.64146565 5.8149863,2.82647935 5.58676033,2.82647935 L0.413239675,2.82647935 C0.185013704,2.82647935 2.79496204e-17,2.64146565 0,2.41323967 C-2.79496204e-17,2.1850137 0.185013704,2 0.413239675,2 Z" id="Rectangle-3-Copy-2"></path><rect id="Rectangle-3-Copy" x="0" y="4.3059174" width="3.25005704" height="1" rx="0.5"></rect><rect id="Rectangle-3-Copy-3" x="0" y="6.3059174" width="2" height="1" rx="0.5"></rect></g><path d="M11.593971,0 C12.1462558,0 12.593971,0.44771525 12.593971,1 L12.593971,12.2236696 C12.593971,12.7759543 12.1462558,13.2236696 11.593971,13.2236696 L1,13.2236696 C0.44771525,13.2236696 0,12.7759543 0,12.2236696 L0,1 C0,0.44771525 0.44771525,0 1,0 L11.593971,0 Z M11.593971,12.2236696 L11.593971,1 L1,1 L1,12.2236696 L11.593971,12.2236696 Z" id="Rectangle-4" fill-rule="nonzero"></path></g><g id="Group-5" transform="translate(2.797180, 1.058993)"><path d="M13.2644908,1.09000181 L13.2644908,1.09000181 C12.4712539,0.28488516 11.1852509,0.28488516 10.392014,1.09000181 L1.9106396,9.70324619 L0.489536228,13.7490423 C0.426924835,13.9395278 0.60535934,14.1196644 0.792396936,14.0564387 L4.77833699,12.6138909 L13.2644908,4.00549756 C14.0577278,3.2003809 14.0577278,1.89511847 13.2644908,1.09000181 Z" id="Path" fill="#1D1E1F"></path><path d="M13.2644908,1.09000181 L13.2644908,1.09000181 C12.4712539,0.28488516 11.1852509,0.28488516 10.392014,1.09000181 L1.9106396,9.70324619 L0.489536228,13.7490423 C0.426924835,13.9395278 0.60535934,14.1196644 0.792396936,14.0564387 L4.77833699,12.6138909 L13.2644908,4.00549756 C14.0577278,3.2003809 14.0577278,1.89511847 13.2644908,1.09000181 Z M4.44042665,11.584978 L2.92437063,10.0462172 L9.89367188,2.96849954 L11.4137108,4.51130292 L4.44042665,11.584978 Z M2.48115207,10.9682447 L3.53200384,12.0348343 L1.89869086,12.6260185 L2.48115207,10.9682447 Z M12.5886702,3.31939393 L12.0896908,3.82552269 L10.5693332,2.28239591 L11.0678346,1.77610544 C11.4881116,1.3495343 12.1682339,1.3495343 12.5885108,1.77610544 C13.0078319,2.20154467 13.0078319,2.8939547 12.5886702,3.31939393 Z" id="Shape" fill="#F8F8F8" fill-rule="nonzero"></path></g></g><g id="Group-2" transform="translate(0.000000, 12.333333)"><circle id="Oval-9" fill="#1D1E1F" cx="6.05833363" cy="6.0333335" r="4.5"></circle><g id="Group-19-Copy" fill="#F8F8F8" fill-rule="nonzero"><path d="M6.05833362,10.5083334 C8.54357348,10.5083334 10.5583336,8.49357323 10.5583336,6.00833338 C10.5583336,3.52309352 8.54357348,1.50833338 6.05833362,1.50833338 C3.57309377,1.50833338 1.55833362,3.52309352 1.55833362,6.00833338 C1.55833362,8.49357323 3.57309377,10.5083334 6.05833362,10.5083334 Z M6.0333335,12.066667 C2.70125717,12.066667 0,9.36540983 0,6.0333335 C0,2.70125717 2.70125717,0 6.0333335,0 C9.36540983,0 12.066667,2.70125717 12.066667,6.0333335 C12.066667,9.36540983 9.36540983,12.066667 6.0333335,12.066667 Z" id="Fill-6-Copy-3"></path><g id="Group-3" transform="translate(3.200000, 3.666667)"><polygon id="1" points="2.30082418 5 1.14010989 5 1.14010989 1.30494505 0 1.63804945 0 0.758928571 2.19436815 0 2.30082418 0"></polygon><polygon id="1-copy" points="5.42582418 5 4.26510989 5 4.26510989 1.30494505 3.125 1.63804945 3.125 0.758928571 5.31936815 0 5.42582418 0"></polygon></g></g></g></g></svg>