<svg role="img" aria-label="Tarjeta Amarilla" xmlns="http://www.w3.org/2000/svg"
    xmlns:xlink="http://www.w3.org/1999/xlink" width="24px" height="24px" viewBox="0 0 24 24"
    version="1.1">
    <title>Tarjeta Amarilla</title>
    <g id="Icons/Directos/yellowCard" stroke="none" stroke-width="1" fill="none" fill-rule="evenodd">
        <circle id="Oval" fill="#1D1E1F" cx="12" cy="12" r="12"></circle>
        <g id="Group" transform="translate(6.304762, 5.304762)">
            <rect id="Rectangle" fill-opacity="0.987686821" fill="#FFB800" x="0.56457906"
                y="0.56457906" width="10.4613179" height="12.5535815"></rect>
            <path
                d="M2.4047619,12 L9.0952381,12 C9.31878192,12 9.5,11.7986466 9.5,11.5502646 L9.5,2.44973545 C9.5,2.20135342 9.31878192,2 9.0952381,2 L2.4047619,2 C2.18121808,2 2,2.20135342 2,2.44973545 L2,11.5502646 C2,11.7986466 2.18121808,12 2.4047619,12 Z M1.12915812,13.6827396 C0.50554131,13.6827396 0,13.1771983 0,12.5535815 L0,1.12915812 C0,0.50554131 0.50554131,0 1.12915812,0 L10.4613179,0 C11.0849347,0 11.590476,0.50554131 11.590476,1.12915812 L11.590476,12.5535815 C11.590476,13.1771983 11.0849347,13.6827396 10.4613179,13.6827396 L1.12915812,13.6827396 Z"
                id="Fill-3-Copy" fill="#F8F8F8" fill-rule="nonzero"></path>
        </g>
    </g>
</svg>