<svg xmlns:xlink="http://www.w3.org/1999/xlink"  role="img" aria-hidden="true" xmlns="http://www.w3.org/2000/svg" style="isolation:isolate" viewBox="0 0 28 28"><clipPath id="emaila"><path d="M6 7.8h16v5.8H6V7.8z" fill="#FFF"></path></clipPath><g clip-path="url(#emaila)"><path d="M14.8 13.4L22 8.9c-.2-.6-.9-1-1.6-1H7.7c-.8 0-1.4.4-1.7 1l7.2 4.5c.4.3 1.2.3 1.6 0z" fill-rule="evenodd"></path></g><g><clipPath id="emailb"><path d="M6 10.8h16v9.4H6v-9.4z" fill="#FFF"></path></clipPath><g clip-path="url(#emailb)"><path d="M15.3 15c-.4.3-.9.4-1.3.4-.5 0-1 0-1.3-.3L6 10.8v7.7c0 1 .8 1.7 1.7 1.7h12.5c1 0 1.8-.8 1.8-1.7v-7.7L15.3 15z" fill-rule="evenodd"></path></g></g><path fill="none" d="M0 0h28v28H0z"></path></svg>