<svg role="img" aria-label="Final del partido" xmlns="http://www.w3.org/2000/svg" xmlns:xlink="http://www.w3.org/1999/xlink" width="24px" height="24px" viewBox="0 0 24 24" version="1.1"><title>Final del partido</title><g id="Icons/Directos/end" stroke="none" stroke-width="1" fill="none" fill-rule="evenodd"><circle id="Oval" fill="#1D1E1F" cx="12" cy="12" r="12"></circle><g id="Group" transform="translate(4.200000, 3.000000)"><g id="Group-41" fill="#F8F8F8"><polygon id="Stroke-1" points="6.83289131 2.97082231 8.61538469 2.97082231 8.61538469 1.18832892 6.83289131 1.18832892"></polygon><path d="M12.0133192,4.28918119 L14.0928948,4.28918119 L14.0928948,3.24939338 C14.0928948,2.67513443 13.6273659,2.20960558 13.053107,2.20960558 C12.4788481,2.20960558 12.0133192,2.67513443 12.0133192,3.24939338 L12.0133192,4.28918119 L12.0133192,4.28918119 Z" id="Stroke-1-Copy-4" transform="translate(13.053107, 3.249393) rotate(-319.000000) translate(-13.053107, -3.249393) "></path><path d="M6.23872685,1.18832892 L9.20954915,1.18832892 C9.53769712,1.18832892 9.80371362,0.922312433 9.80371362,0.594164462 C9.80371362,0.266016491 9.53769712,-1.01892765e-16 9.20954915,0 L6.23872685,0 C5.91057888,6.02798043e-17 5.64456238,0.266016491 5.64456238,0.594164462 C5.64456238,0.922312433 5.91057888,1.18832892 6.23872685,1.18832892 Z" id="Stroke-3"></path><path d="M13.6657826,9.50663138 C13.6657826,6.2251635 11.0056059,3.56498677 7.724138,3.56498677 C4.44267012,3.56498677 1.78249338,6.2251635 1.78249338,9.50663138 C1.78249338,12.7880993 4.44267012,15.448276 7.724138,15.448276 C11.0056059,15.448276 13.6657826,12.7880993 13.6657826,9.50663138 Z M15.448276,9.50663138 C15.448276,13.7725432 11.9900498,17.2307694 7.724138,17.2307694 C3.4582262,17.2307694 0,13.7725432 0,9.50663138 C0,5.24071959 3.4582262,1.78249338 7.724138,1.78249338 C11.9900498,1.78249338 15.448276,5.24071959 15.448276,9.50663138 Z" id="Stroke-5" fill-rule="nonzero"></path></g><circle id="Oval-4" stroke="#FFFFFF" stroke-width="0.5" fill="#FFFFFF" cx="7.724138" cy="9.50663138" r="4.75331569"></circle></g></g></svg>