<svg role="img" aria-label="Gol" xmlns="http://www.w3.org/2000/svg"
    xmlns:xlink="http://www.w3.org/1999/xlink" width="24px" height="24px" viewBox="0 0 24 24"
    version="1.1">
    <title>Gol</title>
    <g id="Icons/Directos/goal" stroke="none" stroke-width="1" fill="none" fill-rule="evenodd">
        <circle id="Oval" fill="#1D1E1F" cx="12" cy="12" r="12"></circle>
        <g id="Group-Copy" transform="translate(3.999990, 3.999990)">
            <path
                d="M7.55810945,15.5732324 C3.41604303,15.5732324 0.0581094539,12.2022924 0.0581094539,8.04418244 C0.0581094539,3.88607246 3.41604303,0.515132516 7.55810945,0.515132516 C11.7001759,0.515132516 15.0581095,3.88607246 15.0581095,8.04418244 C15.0581095,12.2022924 11.7001759,15.5732324 7.55810945,15.5732324 Z"
                id="Fill-6" fill="#F8F8F8"></path>
            <path
                d="M2.39604697,11.4800734 C2.28996844,11.5415316 2.18978316,11.6071993 2.08286274,11.6593966 C1.98183557,11.7090683 1.96836528,11.7671589 1.99278018,11.8774469 C2.10222628,12.3783733 2.41456862,12.7403874 2.7698475,13.0838797 C3.58816759,13.8794687 4.53024596,14.4662682 5.61544616,14.822389 C5.66511785,14.8383849 5.73667876,14.8543809 5.77288017,14.8316498 C5.88653573,14.7567213 5.91010874,14.5353034 5.82676132,14.4292249 C5.45380268,13.9501877 5.08084404,13.4711506 4.70620162,12.9937972 C4.66747453,12.9458093 4.62369609,12.8969795 4.57149872,12.8641456 C3.87862071,12.4187842 3.18321701,11.9767903 2.48781332,11.5331127 C2.45918895,11.5154329 2.42972269,11.4994369 2.39604697,11.4800734 M10.0429619,14.8501715 C10.0648512,14.8518552 10.0766377,14.8552228 10.0875823,14.8518552 C10.1364121,14.8383849 10.1869256,14.8249147 10.2357554,14.8089187 C11.4868086,14.3761856 12.5475939,13.6614184 13.4197951,12.664617 C13.5814386,12.4794005 13.7001455,12.2840813 13.7565524,12.0416161 C13.830639,11.7267481 13.8390579,11.735167 13.5620751,11.5600532 C13.4509452,11.4901761 13.3718072,11.4868085 13.2573098,11.561737 C12.6292575,11.9725809 11.9919444,12.3691125 11.3638922,12.7791144 C11.2325569,12.8649875 11.1113243,12.9752755 11.0119809,13.0965081 C10.6912196,13.4930398 10.381403,13.8988323 10.0673768,14.3012572 C9.86869006,14.5571927 9.86869006,14.5571927 10.0429619,14.8501715 M14.9848744,6.10626979 C14.8274404,6.10795358 14.7449349,6.14836445 14.6910537,6.2754903 C14.4266993,6.89680741 14.1514002,7.51307315 13.8845201,8.13354836 C13.8491606,8.21521199 13.8281133,8.30782023 13.8239038,8.3970609 C13.7877024,9.12950789 13.7573943,9.86195488 13.7237185,10.5944019 C13.7060388,10.9816727 13.704355,10.9841984 14.0512149,11.1466837 C14.0832069,11.1618378 14.1429813,11.1736243 14.1572935,11.1576283 C14.3441937,10.9446294 14.594236,10.7552035 14.6969469,10.5051612 C15.1355732,9.4325894 15.2719599,8.30613644 15.1507273,7.1535848 C15.1145259,6.80335727 15.0421231,6.45733921 14.9848744,6.10626979 M0.83601907,6.10960498 C0.825916353,6.1416293 0.814971743,6.16772799 0.808236598,6.19466857 C0.485791544,7.56021916 0.561561922,8.90472243 0.983350362,10.2424906 C1.1130019,10.6508087 1.39503608,10.9143212 1.68043784,11.1955135 C1.75031497,11.1542608 1.81093127,11.1062729 1.87996651,11.0810161 C2.06265731,11.0145065 2.09380735,10.8890645 2.08286274,10.7072155 C2.03824241,9.92341307 2.01045993,9.13961061 1.97173285,8.35580814 C1.96836528,8.27835397 1.94563417,8.19837413 1.91448412,8.12597132 C1.65097158,7.51728262 1.38156579,6.91111959 1.12226272,6.3007471 C1.06838156,6.17193745 0.991769293,6.10795358 0.83601907,6.10960498 M13.1503893,2.8515111 C13.1276582,2.82541241 13.1074528,2.79762994 13.0830379,2.77405693 C12.0214107,1.70906217 10.7543616,1.02712877 9.27683922,0.742568901 C9.10677681,0.70973507 8.9257698,0.695422888 8.7548655,0.713944536 C8.57470038,0.733308077 8.32886759,0.749304045 8.2429945,0.864643399 C8.15122815,0.988401684 8.21689581,1.22581554 8.20258363,1.4127158 C8.19500659,1.52047812 8.23625935,1.57435928 8.33055138,1.62234718 C9.02932265,1.98015175 9.72304256,2.34637524 10.4218138,2.70249602 C10.530418,2.75721907 10.6575439,2.78836912 10.7804603,2.80183941 C11.4068287,2.87003275 12.0357229,2.91970444 12.6612494,2.99547482 C12.8565686,3.01988972 13.0064256,2.97611128 13.1503893,2.8515111 M7.59221114,0.828441996 C7.32954049,0.781295983 7.06686985,0.671849881 6.81851139,0.69879046 C6.03976028,0.784663555 5.30310382,1.03807338 4.60349066,1.39419415 C3.8676761,1.76799469 3.21268327,2.25124132 2.60904592,2.88434493 C2.76227047,2.93064905 2.89023822,3.009787 3.01147082,3.00052617 C3.6108987,2.95590584 4.2086428,2.88939629 4.80638689,2.8262543 C4.97139794,2.80857455 5.15072117,2.81110023 5.29215921,2.7412231 C6.03470892,2.37163203 6.7679978,1.98351932 7.50212858,1.59793228 C7.54253945,1.57604306 7.58631789,1.51626865 7.58800167,1.47249021 C7.5972625,1.2670683 7.59221114,1.06164638 7.59221114,0.828441996 M10.5691451,12.6738778 C10.1928189,12.1485365 9.82912108,11.6341398 9.45532055,11.1264783 C9.41827726,11.0759647 9.32061766,11.0473404 9.25158242,11.0464985 C8.34486356,11.0414471 7.4381447,11.0414471 6.53226773,11.0473404 C6.46070682,11.0481822 6.3655729,11.0944864 6.32347825,11.1508932 C5.97661829,11.6215114 5.64070295,12.1005486 5.29721057,12.5736925 C5.24585509,12.6452534 5.23827805,12.6940832 5.29552678,12.7681698 C5.65164756,13.2168989 6.00103319,13.672363 6.35883776,14.1202501 C6.39503916,14.1657124 6.47080954,14.2044395 6.52805827,14.2044395 C7.43982849,14.2094908 8.35159871,14.2094908 9.26336893,14.2052813 C9.31809198,14.2052813 9.39049478,14.176657 9.42332861,14.1354042 C9.80470619,13.6555252 10.1801905,13.1714366 10.5691451,12.6738778 M10.8225549,3.41726326 C10.6979548,3.36506588 10.640706,3.45262277 10.585983,3.57638105 C10.3595137,4.08909394 10.121258,4.59675548 9.89731443,5.11115216 C9.86953195,5.17513603 9.87458331,5.28205646 9.90994282,5.34098897 C10.3595137,6.0936414 10.8158198,6.84124246 11.2763353,7.58631785 C11.3091691,7.63851522 11.3857814,7.68818691 11.4463977,7.69492206 C12.0323553,7.75890593 12.6208386,7.8119452 13.2067962,7.8725615 C13.2926693,7.88098043 13.3398153,7.86666825 13.3768586,7.77911137 C13.6269008,7.19567945 13.885362,6.61561511 14.1345624,6.03134131 C14.1572935,5.97998583 14.1497164,5.89411273 14.1210921,5.84528293 C13.696778,5.13135759 13.2674125,4.42079982 12.8338375,3.71276773 C12.8035294,3.66225415 12.7344941,3.61089867 12.6789292,3.60500542 C12.0693986,3.53849586 11.459868,3.48040524 10.8225549,3.41726326 M2.5997851,7.87424529 C3.20005487,7.81447088 3.7700165,7.76058972 4.33913623,7.69576395 C4.40480389,7.68818691 4.48815131,7.63683144 4.52266892,7.58126649 C4.98402634,6.8361911 5.44033239,6.08859004 5.8899033,5.3376214 C5.92526281,5.27784699 5.9269466,5.17092657 5.89832224,5.1061008 C5.66764353,4.57655004 5.42265264,4.05289254 5.18776447,3.52502557 C5.14566981,3.42989165 5.0976819,3.40463486 4.99412905,3.41557947 C4.37365385,3.48208902 3.75149485,3.53597018 3.13101964,3.60584731 C3.0628263,3.61342435 2.97947888,3.67909201 2.9407518,3.7413921 C2.52064715,4.42416739 2.11064521,5.11199405 1.69138245,5.79561124 C1.63413372,5.88990327 1.62908236,5.96483175 1.6737027,6.06417514 C1.92121927,6.61814079 2.16368448,7.17379023 2.40278212,7.73112346 C2.44908624,7.83888578 2.49959982,7.91128858 2.5997851,7.87424529 M7.88855751,10.4420192 L7.88855751,10.4403354 C8.34233788,10.4403354 8.79611826,10.4378098 9.24905674,10.4428611 C9.34755824,10.443703 9.40228129,10.4117111 9.45195298,10.325838 C9.87879278,9.57992069 10.3115258,8.83737099 10.7358399,8.09061181 C10.7661481,8.03588876 10.7661481,7.93233591 10.7341562,7.87929665 C10.2904785,7.13674694 9.84006569,6.3975648 9.38460153,5.66259213 C9.35092581,5.60871098 9.26168514,5.56072307 9.19854316,5.55988118 C8.33307706,5.55398792 7.46592717,5.55398792 6.60046107,5.56072307 C6.5364772,5.56156496 6.44723653,5.60871098 6.41356081,5.66175024 C5.95725475,6.39672291 5.50600005,7.13506315 5.06232239,7.87761286 C5.03033046,7.93065212 5.03033046,8.03420498 5.0614805,8.08808613 C5.48242705,8.83063584 5.9143182,9.5672923 6.33526475,10.309842 C6.39672295,10.4184462 6.46828386,10.4453868 6.58193943,10.443703 C7.01719816,10.4386516 7.45329878,10.4420192 7.88855751,10.4420192 M7.89108319,15.7981724 C3.52081614,15.7863566 -0.00671591513,12.2520894 9.60106263e-06,7.89192504 C0.00591248126,3.52755125 3.54607294,-0.00671595164 7.90623726,9.58285971e-06 C12.2706111,0.00675433784 15.8040364,3.54691479 15.7973108,7.90623722 C15.791408,12.2697691 12.2445124,15.8099296 7.89108319,15.7981724 Z"
                id="Fill-8" fill="#1D1E1F"></path>
        </g>
    </g>
</svg>