<svg role="img" aria-label="Ocasión de gol" xmlns="http://www.w3.org/2000/svg"
    xmlns:xlink="http://www.w3.org/1999/xlink" width="24px" height="24px" viewBox="0 0 24 24"
    version="1.1">
    <title>Ocasión de gol</title>
    <defs>
        <circle id="path-1" cx="12" cy="12" r="12"></circle>
    </defs>
    <g id="Icons/Directos/chanceToScore" stroke="none" stroke-width="1" fill="none"
        fill-rule="evenodd">
        <g id="Group-22">
            <mask id="mask-2" fill="white">
                <use xlink:href="#path-1"></use>
            </mask>
            <use id="Mask" fill="#1D1E1F" xlink:href="#path-1"></use>
            <g mask="url(#mask-2)">
                <g transform="translate(6.000000, 3.858619)">
                    <g id="Group-13" fill="#F8F8F8" fill-rule="nonzero">
                        <polygon id="Path-15-Copy-6" opacity="0.500431504"
                            points="16.4680814 5.26456443 16.9249169 5.26456443 16.9249169 15.5022289 16.4680814 15.5022289"></polygon>
                        <polygon id="Path-15-Copy-7" opacity="0.500431504"
                            points="13.5753521 5.26456443 14.0321876 5.26456443 14.0321876 15.5022289 13.5753521 15.5022289"></polygon>
                        <polygon id="Path-15-Copy-8" opacity="0.500431504"
                            points="10.6826229 5.26456443 11.1394583 5.26456443 11.1394583 15.5022289 10.6826229 15.5022289"></polygon>
                        <polygon id="Path-15-Copy-9" opacity="0.500431504"
                            points="7.78989359 5.26456443 8.24672907 5.26456443 8.24672907 15.5022289 7.78989359 15.5022289"></polygon>
                        <polygon id="Line" opacity="0.500431504"
                            points="38.7544409 9.3647006 38.7544409 10.1276269 34.177535 10.9427016 5.6638627 10.9471308 0.346252532 10.1276269 0.461598 9.3647006 5.68761413 10.1750593 34.1705196 10.1709859"></polygon>
                        <polygon id="Line-Copy-5" opacity="0.500431504"
                            points="38.7544409 6.47197134 38.7544409 7.23489766 34.177535 8.04997238 5.6638627 8.05440156 0.346252532 7.23489766 0.461598 6.47197134 5.68761413 7.28233004 34.1705196 7.27825664"></polygon>
                        <polygon id="Line-Copy-6" opacity="0.500431504"
                            points="38.7544409 12.2574299 38.7544409 13.0203562 34.177535 13.8354309 5.6638627 13.8398601 0.346252532 13.0203562 0.461598 12.2574299 5.68761413 13.0677886 34.1705196 13.0637152"></polygon>
                        <polygon id="Line-Copy-7" opacity="0.500431504"
                            points="38.7544409 3.57924207 38.7544409 4.34216839 34.177535 5.15724311 5.6638627 5.16167229 0.346252532 4.34216839 0.461598 3.57924207 5.68761413 4.38960077 34.1705196 4.38552737"></polygon>
                        <polygon id="Path-13" opacity="0.802288"
                            points="5.77135152 5.85065336 5.77135152 15.5022289 4.96705356 15.5022289 4.96705356 5.0463554 34.1705196 5.0463554 34.1705196 15.5022289 33.441452 15.5022289 33.441452 5.85065336"></polygon>
                        <polygon id="Path-16"
                            points="1.37879651 1.39635063 1.37879651 15.5022289 0 15.5022289 3.72004008e-14 2.14308028e-15 40 0 40 15.5022289 38.4992554 15.5022289 38.4992554 1.39635063"></polygon>
                    </g>
                    <g id="Group-Copy-3" transform="translate(4.255428, 9.765016)">
                        <circle id="Oval" fill="#1D1E1F" cx="4" cy="4" r="4"></circle>
                        <path
                            d="M3.82657863,7.50911775 C1.93104115,7.50911775 0.394347065,5.97242367 0.394347065,4.07688619 C0.394347065,2.18134871 1.93104115,0.644654628 3.82657863,0.644654628 C5.72211611,0.644654628 7.25881019,2.18134871 7.25881019,4.07688619 C7.25881019,5.97242367 5.72211611,7.50911775 3.82657863,7.50911775 Z"
                            id="Fill-6" fill="#1D1E1F"></path>
                        <path
                            d="M4.38218435,7.05583356 C2.86731357,7.05583356 1.11155428,5.91255387 1.11155428,3.8420458 C1.11155428,1.77153773 1.51619445,0.628258044 4.03415935,0.628258044 C6.55212425,0.628258044 7.49363679,2.65902655 7.49363679,3.75610706 C7.49363679,5.47448608 5.89705513,7.05583356 4.38218435,7.05583356 Z"
                            id="Fill-6" fill="#1D1E1F"></path>
                        <path
                            d="M1.48661703,5.64318918 C1.43825952,5.67120583 1.39258854,5.70114143 1.34384725,5.72493639 C1.29779248,5.74757998 1.29165184,5.77406147 1.30278175,5.82433793 C1.35267441,6.05269282 1.4950604,6.2177224 1.65701967,6.37430861 C2.03006329,6.73698991 2.45952399,7.00449135 2.95422896,7.16683441 C2.97687255,7.17412641 3.00949468,7.18141842 3.02599764,7.17105609 C3.07780925,7.13689881 3.08855536,7.03596211 3.05056018,6.9876046 C2.88054133,6.76922825 2.71052248,6.55085189 2.53973605,6.33324311 C2.52208172,6.3113671 2.50212465,6.28910729 2.47832969,6.27413949 C2.16247074,6.07111473 1.84546043,5.86962512 1.52845011,5.66736793 C1.51540126,5.65930834 1.50196862,5.65201634 1.48661703,5.64318918 M4.97257915,7.17949947 C4.98255768,7.18026705 4.98793074,7.18180221 4.99292001,7.18026705 C5.01517981,7.17412641 5.03820719,7.16798578 5.060467,7.16069377 C5.63077854,6.96342585 6.1143536,6.63758837 6.51195976,6.18318133 C6.58564739,6.09874759 6.63976174,6.00970837 6.66547565,5.89917693 C6.69924915,5.75563957 6.70308705,5.75947746 6.57682022,5.6796492 C6.52615998,5.64779465 6.49008375,5.64625949 6.43788834,5.68041678 C6.1515812,5.86770617 5.86105238,6.04847113 5.57474524,6.23537673 C5.51487404,6.27452328 5.45960832,6.32479974 5.41431868,6.38006546 C5.26809724,6.56083042 5.12686262,6.74581707 4.98370905,6.92926856 C4.89313468,7.04594064 4.89313468,7.04594064 4.97257915,7.17949947 M7.22542487,3.19345933 C7.15365619,3.19422691 7.1160448,3.21264881 7.09148225,3.27060106 C6.97097228,3.55383788 6.84547304,3.83477197 6.72381169,4.117625 C6.70769252,4.1548526 6.69809778,4.19706947 6.69617883,4.23775118 C6.67967587,4.57164825 6.66585944,4.90554531 6.65050785,5.23944238 C6.64244827,5.41598566 6.64168069,5.41713702 6.79980206,5.49120844 C6.81438607,5.49811666 6.84163514,5.50348971 6.84815956,5.49619771 C6.93336088,5.39909891 7.04734643,5.31274622 7.09416878,5.19876067 C7.29412323,4.70981255 7.35629717,4.19630189 7.30103145,3.67089375 C7.28452849,3.51123722 7.25152257,3.35349964 7.22542487,3.19345933 M0.775454657,3.19497972 C0.77084918,3.20957849 0.765859914,3.22147598 0.762789596,3.23375725 C0.615798129,3.85626419 0.650339205,4.46917639 0.84261786,5.07901827 C0.901721478,5.26515629 1.03029104,5.38528248 1.16039576,5.51346825 C1.1922503,5.49466255 1.21988316,5.47278654 1.25135392,5.46127284 C1.33463629,5.43095345 1.34883651,5.37376879 1.34384725,5.2908702 C1.32350639,4.93356196 1.31084133,4.57625372 1.293187,4.21894549 C1.29165184,4.18363683 1.28128952,4.14717681 1.2670893,4.11417089 C1.14696312,3.83669091 1.0241504,3.56036231 0.905943165,3.28211475 C0.881380623,3.22339492 0.846455757,3.19422691 0.775454657,3.19497972 M6.38914705,1.70972823 C6.37878472,1.69783075 6.36957377,1.68516568 6.35844387,1.67441957 C5.87448502,1.18892556 5.29688147,0.878055881 4.6233305,0.748334952 C4.54580497,0.733367153 4.46329018,0.726842727 4.38538086,0.735286101 C4.30324986,0.744113265 4.19118326,0.75140527 4.15203671,0.803984463 C4.11020363,0.860401553 4.14013922,0.968630257 4.1336148,1.05383158 C4.13016069,1.10295666 4.14896639,1.12751921 4.19195084,1.14939522 C4.51049631,1.31250586 4.82673905,1.47945439 5.14528453,1.64179744 C5.1947934,1.66674378 5.25274565,1.680944 5.30877895,1.68708463 C5.59431851,1.7181716 5.88100944,1.7408152 6.16616521,1.77535627 C6.25520443,1.78648617 6.323519,1.76652911 6.38914705,1.70972823 M3.85536724,0.787481505 C3.73562485,0.76598928 3.61588245,0.716096615 3.50266448,0.728377886 C3.14765898,0.767524439 2.81184297,0.883045148 2.4929137,1.0453882 C2.15748148,1.21579084 1.85889307,1.43608615 1.58371583,1.72469603 C1.65356556,1.74580446 1.7119016,1.7818807 1.76716732,1.77765901 C2.04042561,1.75731815 2.31291632,1.72699877 2.58540703,1.69821454 C2.66062981,1.69015495 2.74237703,1.69130632 2.8068537,1.65945177 C3.14535624,1.49096808 3.4796371,1.31404101 3.81430174,1.13826532 C3.83272365,1.12828679 3.85268072,1.10103771 3.8534483,1.08108065 C3.85766998,0.987435954 3.85536724,0.89379126 3.85536724,0.787481505 M5.21244773,6.18740301 C5.04089372,5.94791822 4.87509656,5.7134227 4.70469392,5.48199749 C4.68780717,5.45897011 4.64328756,5.44592125 4.6118168,5.44553746 C4.19847526,5.44323473 3.78513372,5.44323473 3.37217597,5.44592125 C3.33955385,5.44630504 3.29618561,5.46741348 3.27699612,5.49312739 C3.11887475,5.70766585 2.96574265,5.92604221 2.80915644,6.14173204 C2.78574527,6.17435416 2.78229116,6.19661397 2.80838886,6.23038746 C2.97073192,6.43494739 3.13000465,6.64257763 3.29311529,6.84675377 C3.30961825,6.86747842 3.34415932,6.88513274 3.37025703,6.88513274 C3.7859013,6.88743548 4.20154558,6.88743548 4.61718986,6.88551653 C4.64213619,6.88551653 4.67514211,6.87246768 4.69010991,6.85366199 C4.86396666,6.63490184 5.03513688,6.41422274 5.21244773,6.18740301 M5.32796844,1.96763493 C5.27116756,1.94383996 5.24506986,1.98375409 5.22012353,2.04017119 C5.11688409,2.27389913 5.0082716,2.50532434 4.90618353,2.73981986 C4.89351847,2.76898788 4.8958212,2.81772918 4.91194037,2.84459446 C5.11688409,3.18770248 5.32489812,3.52850776 5.53483111,3.86816167 C5.54979891,3.89195664 5.58472377,3.91460023 5.61235663,3.91767055 C5.87947428,3.94683857 6.14774331,3.97101732 6.41486096,3.99865018 C6.45400751,4.00248808 6.47549974,3.99596365 6.49238648,3.95604952 C6.60637203,3.69008324 6.72419548,3.42565211 6.83779724,3.15930204 C6.84815956,3.13589087 6.84470546,3.09674431 6.83165661,3.07448451 C6.63822658,2.74903082 6.44249382,2.42511228 6.24484211,2.10234512 C6.23102568,2.07931774 6.19955492,2.05590656 6.1742248,2.05322004 C5.89636103,2.02290065 5.61849727,1.99641916 5.32796844,1.96763493 M1.57949414,3.99941776 C1.85313622,3.97216869 2.11296187,3.94760615 2.37240373,3.91805434 C2.40233932,3.91460023 2.44033451,3.89118906 2.45606989,3.86585893 C2.66638666,3.52620502 2.87440069,3.18539974 3.07934441,2.8430593 C3.09546358,2.81581023 3.09623116,2.76706893 3.08318231,2.73751713 C2.97802392,2.49611339 2.86634111,2.25739617 2.75926377,2.01676001 C2.74007429,1.97339177 2.71819827,1.96187808 2.67099214,1.96686735 C2.3881391,1.99718674 2.10451849,2.02174928 1.82166546,2.05360383 C1.79057849,2.05705793 1.75258331,2.08699353 1.73492898,2.11539397 C1.54341791,2.42664744 1.35651231,2.74020365 1.16538502,3.05184092 C1.13928732,3.09482536 1.13698458,3.12898265 1.15732544,3.17426984 C1.27015962,3.42680348 1.38069106,3.6801047 1.48968735,3.93417351 C1.51079578,3.98329859 1.53382316,4.01630451 1.57949414,3.99941776 M3.99046123,5.16997644 L3.99046123,5.16920886 C4.19732389,5.16920886 4.40418656,5.16805749 4.61066543,5.17036023 C4.65556883,5.17074402 4.68051517,5.15616001 4.70315876,5.11701346 C4.89774015,4.77697575 5.09500807,4.43847321 5.2884381,4.09805172 C5.30225453,4.07310539 5.30225453,4.02589925 5.28767052,4.0017205 C5.08541333,3.66321796 4.88008583,3.32625057 4.67245558,2.99120214 C4.65710399,2.96663959 4.61642228,2.94476358 4.58763805,2.94437979 C4.19310221,2.94169326 3.79779879,2.94169326 3.40326294,2.94476358 C3.37409492,2.94514737 3.33341321,2.96663959 3.31806162,2.99081835 C3.11004759,3.32586678 2.90433629,3.66245038 2.7020791,4.00095292 C2.68749509,4.02513167 2.68749509,4.07233781 2.70169531,4.09690035 C2.89359018,4.43540289 3.09047431,4.77121891 3.28236918,5.10972145 C3.31038583,5.15923033 3.34300795,5.1715116 3.39481957,5.17074402 C3.59323886,5.16844128 3.79204194,5.16997644 3.99046123,5.16997644 M3.9916126,7.61166008 C1.99936011,7.60627365 0.391281137,5.99512436 0.394347065,4.00747734 C0.397037983,2.01791138 2.0108738,0.406762092 3.99852081,0.409828029 C5.98808678,0.412902728 7.59885228,2.02673854 7.59578634,4.01400177 C7.59309543,6.00318394 5.9761893,7.61701976 3.9916126,7.61166008 Z"
                            id="Fill-8" fill="#F8F8F8"></path>
                    </g>
                </g>
            </g>
        </g>
    </g>
</svg>