<svg role="img" aria-label="Decisión polémica del árbitro" xmlns="http://www.w3.org/2000/svg" xmlns:xlink="http://www.w3.org/1999/xlink" width="24px" height="24px" viewBox="0 0 24 24" version="1.1"><title>Decisión polémica del árbitro</title><g id="Icons/Directos/controversialPlay" stroke="none" stroke-width="1" fill="none" fill-rule="evenodd"><circle id="Oval" fill="#1D1E1F" cx="12" cy="12" r="12"></circle><g id="Group-33-Copy-2" transform="translate(3.500000, 5.006066)" fill="#F8F8F8"><path d="M8.01315802,4.50721185 L7.93229135,4.52493628 L7.84994304,4.51643159 C7.70494029,4.50145614 7.55855851,4.49391079 7.41115702,4.49391079 C5.08950983,4.49391079 3.20798898,6.37051049 3.20798898,8.68473798 C3.20798898,10.9989655 5.08950983,12.8755652 7.41115702,12.8755652 C9.73280422,12.8755652 11.6143251,10.9989655 11.6143251,8.68473798 C11.6143251,8.35554759 11.5763578,8.03169841 11.5019359,7.71746541 L11.3518113,7.08359138 L15.3960055,7.08359138 C15.7128466,7.08359138 15.969697,6.82674097 15.969697,6.50989992 L15.969697,5.06760225 C15.969697,4.75076121 15.7128466,4.49391079 15.3960055,4.49391079 L8.13705234,4.49391079 C8.09471961,4.49391079 8.05332099,4.4984089 8.01315802,4.50721185 Z M8.13705234,3.46360776 L15.3960055,3.46360776 C16.2818672,3.46360776 17,4.18174056 17,5.06760225 L17,6.50989992 C17,7.39576162 16.2818672,8.11389441 15.3960055,8.11389441 L12.613664,8.11389441 C12.634245,8.30250763 12.6446281,8.49298996 12.6446281,8.68473798 C12.6446281,11.568591 10.3012217,13.9058682 7.41115702,13.9058682 C4.52109234,13.9058682 2.17768595,11.568591 2.17768595,8.68473798 C2.17768595,5.80088493 4.52109234,3.46360776 7.41115702,3.46360776 C7.56814703,3.46360776 7.72435614,3.47051833 7.87946802,3.4842589 C7.96419087,3.47054762 8.05026892,3.46360776 8.13705234,3.46360776 Z" id="Combined-Shape" fill-rule="nonzero"></path><path d="M1.60399449,9.92388622 C0.718434375,9.92388622 0,9.20733093 0,8.32273962 C0,7.43814832 0.718434375,6.72159302 1.60399449,6.72159302 C2.48955461,6.72159302 3.20798898,7.43814832 3.20798898,8.32273962 C3.20798898,9.20733093 2.48955461,9.92388622 1.60399449,9.92388622 Z M1.60399449,8.89358319 C1.92113712,8.89358319 2.17768595,8.63770537 2.17768595,8.32273962 C2.17768595,8.00777388 1.92113712,7.75189605 1.60399449,7.75189605 C1.28685187,7.75189605 1.03030303,8.00777388 1.03030303,8.32273962 C1.03030303,8.63770537 1.28685187,8.89358319 1.60399449,8.89358319 Z" id="Oval-5-Copy-3" fill-rule="nonzero"></path><g id="Group-34-Copy" transform="translate(0.539861, 0.000000)" fill-rule="nonzero"><path d="M3.1260394,3.03828753 C3.24036791,3.25041857 3.5053197,3.33042021 3.71836998,3.21639073 C3.9310573,3.10272324 4.01126874,2.83810244 3.89694022,2.6252474 L2.76309174,0.517692939 C2.64876323,0.305923898 2.38344849,0.225560261 2.17076116,0.339589745 C1.95771088,0.453619229 1.87749945,0.71860203 1.99182796,0.931457067 L3.1260394,3.03828753 Z" id="Shape"></path><path d="M0.311017358,3.53675928 L2.60702425,4.22745215 C2.72280455,4.26256599 2.84148843,4.24736206 2.9402102,4.1941483 C3.03856901,4.14165854 3.11732865,4.05115895 3.15217163,3.93568147 C3.22185758,3.70472652 3.09119642,3.46146362 2.85963582,3.39195993 L0.563991876,2.70199106 C0.33243127,2.63212537 0.0885304436,2.76280678 0.0188444932,2.99339974 C-0.0512044049,3.22471669 0.0801826475,3.46797959 0.311017358,3.53675928 Z" id="Shape"></path><path d="M4.63190923,3.14435305 C4.74768953,3.1794669 4.86637342,3.16390097 4.96509518,3.1110492 C5.063454,3.05819744 5.14221364,2.96769785 5.17669367,2.85185838 L5.86883485,0.562218738 C5.9385208,0.331263783 5.80785964,0.0880008836 5.57629904,0.0184971981 C5.34510138,-0.050644489 5.10120055,0.0800369196 5.03115166,0.310629876 L4.33901047,2.60063151 C4.26968747,2.83194847 4.40034863,3.07484937 4.63190923,3.14435305 Z" id="Shape"></path></g><ellipse id="Oval-2" cx="7.41115702" cy="8.68473798" rx="1.81473829" ry="1.80999181"></ellipse></g><g id="Group" transform="translate(0.000000, 14.000000)" fill-rule="nonzero"><g id="Group-2"><circle id="Oval-9" fill="#EE0000" cx="5.00000002" cy="5.00000002" r="3.75"></circle><g id="Group-19-Copy" fill="#F8F8F8"><path d="M5.00000002,8.75 C7.07103321,8.75 8.75,7.07103321 8.75,5.00000002 C8.75,2.92896679 7.07103321,1.25 5.00000002,1.25 C2.92896679,1.25 1.25,2.92896679 1.25,5.00000002 C1.25,7.07103321 2.92896679,8.75 5.00000002,8.75 Z M5,10 C2.23861085,10 0,7.76138913 0,5 C0,2.23861085 2.23861085,0 5,0 C7.76138913,0 10,2.23861085 10,5 C10,7.76138913 7.76138913,10 5,10 Z" id="Fill-6-Copy-3"></path></g></g><g id="Group-3" transform="translate(4.375000, 2.187500)" fill="#FFFFFF"><circle id="Oval-3" cx="0.624999998" cy="5.00000002" r="1"></circle><path d="M0.624999998,0 L0.624999998,0 C0.970177967,0 1.25,0.279822031 1.25,0.624999998 L1.25,2.8125 C1.25,3.15767797 0.970177967,3.4375 0.624999998,3.4375 L0.624999998,3.4375 C0.279822031,3.4375 0,3.15767797 0,2.8125 L0,0.624999998 C0,0.279822031 0.279822031,0 0.624999998,0 Z" id="Rectangle"></path></g></g></g></svg>