<svg role="img" aria-label="Primera parte" xmlns="http://www.w3.org/2000/svg" xmlns:xlink="http://www.w3.org/1999/xlink" width="24px" height="24px" viewBox="0 0 24 24" version="1.1"><title>Primera parte</title><g id="Icons/Directos/startFirstHalf" stroke="none" stroke-width="1" fill="none" fill-rule="evenodd"><circle id="Oval" fill="#1D1E1F" cx="12" cy="12" r="12"></circle><g id="Group-41" transform="translate(4.200000, 3.000000)" fill="#F8F8F8"><polygon id="Stroke-1" points="6.83289131 2.97082231 8.61538469 2.97082231 8.61538469 1.18832892 6.83289131 1.18832892"></polygon><path d="M2.8230414,4.52758621 C5.57224617,4.52758621 7.80091698,6.75625702 7.80091698,9.50546179 C7.80091698,12.2546666 5.57224617,14.4833374 2.8230414,14.4833374 C2.8156384,14.4833374 2.80823918,14.4833212 2.80084376,14.4832889 L2.80020544,4.52758621 Z" id="Combined-Shape-Copy" transform="translate(5.300561, 9.505462) rotate(-180.000000) translate(-5.300561, -9.505462) "></path><path d="M7.8230414,4.52758621 C10.5722462,4.52758621 12.800917,6.75625702 12.800917,9.50546179 C12.800917,12.2546666 10.5722462,14.4833374 7.8230414,14.4833374 C7.8156384,14.4833374 7.80823918,14.4833212 7.80084376,14.4832889 L7.80020544,4.52758621 Z" id="Combined-Shape-Copy-2" transform="translate(10.300561, 9.505462) rotate(-360.000000) translate(-10.300561, -9.505462) "></path><path d="M12.0133192,4.28918119 L14.0928948,4.28918119 L14.0928948,3.24939338 C14.0928948,2.67513443 13.6273659,2.20960558 13.053107,2.20960558 C12.4788481,2.20960558 12.0133192,2.67513443 12.0133192,3.24939338 L12.0133192,4.28918119 L12.0133192,4.28918119 Z" id="Stroke-1-Copy-4" transform="translate(13.053107, 3.249393) rotate(-319.000000) translate(-13.053107, -3.249393) "></path><path d="M6.23872685,1.18832892 L9.20954915,1.18832892 C9.53769712,1.18832892 9.80371362,0.922312433 9.80371362,0.594164462 C9.80371362,0.266016491 9.53769712,-1.01892765e-16 9.20954915,0 L6.23872685,0 C5.91057888,6.02798043e-17 5.64456238,0.266016491 5.64456238,0.594164462 C5.64456238,0.922312433 5.91057888,1.18832892 6.23872685,1.18832892 Z" id="Stroke-3"></path><path d="M13.6657826,9.50663138 C13.6657826,6.2251635 11.0056059,3.56498677 7.724138,3.56498677 C4.44267012,3.56498677 1.78249338,6.2251635 1.78249338,9.50663138 C1.78249338,12.7880993 4.44267012,15.448276 7.724138,15.448276 C11.0056059,15.448276 13.6657826,12.7880993 13.6657826,9.50663138 Z M15.448276,9.50663138 C15.448276,13.7725432 11.9900498,17.2307694 7.724138,17.2307694 C3.4582262,17.2307694 0,13.7725432 0,9.50663138 C0,5.24071959 3.4582262,1.78249338 7.724138,1.78249338 C11.9900498,1.78249338 15.448276,5.24071959 15.448276,9.50663138 Z" id="Stroke-5" fill-rule="nonzero"></path></g><g id="0'" transform="translate(10.000000, 9.750000)" fill="#1D1E1F" fill-rule="nonzero"><path d="M3.36328125,3.19238281 C3.36328125,3.88053385 3.22086589,4.40690104 2.93603516,4.77148438 C2.65120443,5.13606771 2.23421224,5.31835938 1.68505859,5.31835938 C1.14274089,5.31835938 0.728027344,5.13948568 0.440917969,4.78173828 C0.153808594,4.42399089 0.0068359375,3.91129557 0,3.24365234 L0,2.32763672 C0,1.63264974 0.144124349,1.10514323 0.432373047,0.745117188 C0.720621745,0.385091146 1.13590495,0.205078125 1.67822266,0.205078125 C2.22054036,0.205078125 2.63525391,0.383382161 2.92236328,0.739990234 C3.20947266,1.09659831 3.35644531,1.60872396 3.36328125,2.27636719 L3.36328125,3.19238281 Z M2.37548828,2.1875 C2.37548828,1.7750651 2.3190918,1.47485352 2.20629883,1.28686523 C2.09350586,1.09887695 1.91748047,1.00488281 1.67822266,1.00488281 C1.44580078,1.00488281 1.27433268,1.09431966 1.16381836,1.27319336 C1.05330404,1.45206706 0.994628906,1.73177083 0.987792969,2.11230469 L0.987792969,3.32226562 C0.987792969,3.72786458 1.04305013,4.02921549 1.15356445,4.22631836 C1.26407878,4.42342122 1.44124349,4.52197266 1.68505859,4.52197266 C1.92659505,4.52197266 2.10091146,4.42740885 2.20800781,4.23828125 C2.31510417,4.04915365 2.37093099,3.75976562 2.37548828,3.37011719 L2.37548828,2.1875 Z" id="Shape"></path><path d="M4.06484375,1.80126953 L3.6,1.53125 C3.79596354,1.22363281 3.89736328,0.905761719 3.90419922,0.577636719 L3.90419922,0 L4.69033203,0 L4.69033203,0.529785156 C4.69033203,0.734863281 4.63336589,0.95703125 4.51943359,1.19628906 C4.4055013,1.43554688 4.25397135,1.63720703 4.06484375,1.80126953 Z" id="Path"></path></g></g></svg>