<svg role="img" aria-label="Segunda parte" xmlns="http://www.w3.org/2000/svg" xmlns:xlink="http://www.w3.org/1999/xlink" width="24px" height="24px" viewBox="0 0 24 24" version="1.1"><title>Segunda parte</title><g id="Icons/Directos/startSecondHalf" stroke="none" stroke-width="1" fill="none" fill-rule="evenodd"><circle id="Oval" fill="#1D1E1F" cx="12" cy="12" r="12"></circle><g id="Group-41" transform="translate(4.200000, 3.000000)" fill="#F8F8F8"><polygon id="Stroke-1" points="6.83289131 2.97082231 8.61538469 2.97082231 8.61538469 1.18832892 6.83289131 1.18832892"></polygon><path d="M2.8230414,4.52758621 C5.57224617,4.52758621 7.80091698,6.75625702 7.80091698,9.50546179 C7.80091698,12.2546666 5.57224617,14.4833374 2.8230414,14.4833374 C2.8156384,14.4833374 2.80823918,14.4833212 2.80084376,14.4832889 L2.80020544,4.52758621 Z" id="Combined-Shape-Copy" transform="translate(5.300561, 9.505462) rotate(-180.000000) translate(-5.300561, -9.505462) "></path><path d="M7.8230414,4.52758621 C10.5722462,4.52758621 12.800917,6.75625702 12.800917,9.50546179 C12.800917,12.2546666 10.5722462,14.4833374 7.8230414,14.4833374 C7.8156384,14.4833374 7.80823918,14.4833212 7.80084376,14.4832889 L7.80020544,4.52758621 Z" id="Combined-Shape-Copy-2" transform="translate(10.300561, 9.505462) rotate(-360.000000) translate(-10.300561, -9.505462) "></path><path d="M12.0133192,4.28918119 L14.0928948,4.28918119 L14.0928948,3.24939338 C14.0928948,2.67513443 13.6273659,2.20960558 13.053107,2.20960558 C12.4788481,2.20960558 12.0133192,2.67513443 12.0133192,3.24939338 L12.0133192,4.28918119 L12.0133192,4.28918119 Z" id="Stroke-1-Copy-4" transform="translate(13.053107, 3.249393) rotate(-319.000000) translate(-13.053107, -3.249393) "></path><path d="M6.23872685,1.18832892 L9.20954915,1.18832892 C9.53769712,1.18832892 9.80371362,0.922312433 9.80371362,0.594164462 C9.80371362,0.266016491 9.53769712,-1.01892765e-16 9.20954915,0 L6.23872685,0 C5.91057888,6.02798043e-17 5.64456238,0.266016491 5.64456238,0.594164462 C5.64456238,0.922312433 5.91057888,1.18832892 6.23872685,1.18832892 Z" id="Stroke-3"></path><path d="M13.6657826,9.50663138 C13.6657826,6.2251635 11.0056059,3.56498677 7.724138,3.56498677 C4.44267012,3.56498677 1.78249338,6.2251635 1.78249338,9.50663138 C1.78249338,12.7880993 4.44267012,15.448276 7.724138,15.448276 C11.0056059,15.448276 13.6657826,12.7880993 13.6657826,9.50663138 Z M15.448276,9.50663138 C15.448276,13.7725432 11.9900498,17.2307694 7.724138,17.2307694 C3.4582262,17.2307694 0,13.7725432 0,9.50663138 C0,5.24071959 3.4582262,1.78249338 7.724138,1.78249338 C11.9900498,1.78249338 15.448276,5.24071959 15.448276,9.50663138 Z" id="Stroke-5" fill-rule="nonzero"></path></g><g id="45'" transform="translate(8.161133, 10.400000)" fill="#1D1E1F" fill-rule="nonzero"><path d="M2.63378906,2.89453125 L3.1171875,2.89453125 L3.1171875,3.57714844 L2.63378906,3.57714844 L2.63378906,4.5 L1.78710938,4.5 L1.78710938,3.57714844 L0.0380859375,3.57714844 L0,3.04394531 L1.77832031,0.234375 L2.63378906,0.234375 L2.63378906,2.89453125 Z M0.84375,2.89453125 L1.78710938,2.89453125 L1.78710938,1.38867188 L1.73144531,1.48535156 L0.84375,2.89453125 Z" id="Shape"></path><path d="M3.69726562,2.40234375 L3.94335938,0.234375 L6.33398438,0.234375 L6.33398438,0.940429688 L4.63769531,0.940429688 L4.53222656,1.85742188 C4.73339844,1.75 4.94726562,1.69628906 5.17382812,1.69628906 C5.58007812,1.69628906 5.8984375,1.82226562 6.12890625,2.07421875 C6.359375,2.32617188 6.47460938,2.67871094 6.47460938,3.13183594 C6.47460938,3.40722656 6.41650391,3.65380859 6.30029297,3.87158203 C6.18408203,4.08935547 6.01757812,4.25830078 5.80078125,4.37841797 C5.58398438,4.49853516 5.328125,4.55859375 5.03320312,4.55859375 C4.77539062,4.55859375 4.53613281,4.50634766 4.31542969,4.40185547 C4.09472656,4.29736328 3.92041016,4.15039062 3.79248047,3.9609375 C3.66455078,3.77148438 3.59667969,3.55566406 3.58886719,3.31347656 L4.42675781,3.31347656 C4.44433594,3.49121094 4.50634766,3.62939453 4.61279297,3.72802734 C4.71923828,3.82666016 4.85839844,3.87597656 5.03027344,3.87597656 C5.22167969,3.87597656 5.36914062,3.80712891 5.47265625,3.66943359 C5.57617188,3.53173828 5.62792969,3.33691406 5.62792969,3.08496094 C5.62792969,2.84277344 5.56835938,2.65722656 5.44921875,2.52832031 C5.33007812,2.39941406 5.16113281,2.33496094 4.94238281,2.33496094 C4.74121094,2.33496094 4.578125,2.38769531 4.453125,2.49316406 L4.37109375,2.56933594 L3.69726562,2.40234375 Z" id="Path"></path><path d="M6.97001953,1.54394531 L6.57158203,1.3125 C6.73955078,1.04882812 6.82646484,0.776367188 6.83232422,0.495117188 L6.83232422,0 L7.50615234,0 L7.50615234,0.454101562 C7.50615234,0.629882812 7.45732422,0.8203125 7.35966797,1.02539062 C7.26201172,1.23046875 7.13212891,1.40332031 6.97001953,1.54394531 Z" id="Path"></path></g></g></svg>