<svg xmlns:xlink="http://www.w3.org/1999/xlink"  role="img" aria-hidden="true" xmlns="http://www.w3.org/2000/svg" width="28" height="28" style="isolation:isolate" viewBox="0 0 28 28"><clipPath><path d="M6 6h16v16H6V6z" fill="#FFF"></path></clipPath><g clip-path="url(#a-whatsapp)"><path d="M18.4 17.3c-.2.5-1 1-1.6 1.1-.4.1-1 .2-2.8-.6-2.3-1-3.9-3.3-4-3.5 0-.1-1-1.3-1-2.4 0-1.2.7-1.7.9-2 .2-.2.5-.2.8-.2h.3c.2 0 .3 0 .5.4l.7 1.7c0 .1.1.3 0 .4l-.2.4-.4.4c0 .1-.2.2 0 .5 0 .2.5 1 1.2 1.6 1 .8 1.6 1 2 1.1h.5l.6-.9c.2-.2.4-.2.6-.1l1.6.7.4.3-.1 1.1zM14 6a8 8 0 00-6.5 12.7l-1 3 3.1-1A8 8 0 1014 6z" fill-rule="evenodd"></path></g><path fill="none" d="M0 0h28v28H0z"></path></svg>