<svg role="img" aria-label="Tiempo añadido" xmlns="http://www.w3.org/2000/svg" xmlns:xlink="http://www.w3.org/1999/xlink" width="24px" height="24px" viewBox="0 0 24 24" version="1.1"><title>Tiempo añadido</title><g id="Icons/Directos/startDelay" stroke="none" stroke-width="1" fill="none" fill-rule="evenodd"><circle id="Oval" fill="#1D1E1F" cx="12" cy="12" r="12"></circle><g id="Group-41" transform="translate(4.200000, 3.000000)" fill="#F8F8F8"><polygon id="Stroke-1" points="6.83289131 2.97082231 8.61538469 2.97082231 8.61538469 1.18832892 6.83289131 1.18832892"></polygon><path d="M2.8230414,4.52758621 C5.57224617,4.52758621 7.80091698,6.75625702 7.80091698,9.50546179 C7.80091698,12.2546666 5.57224617,14.4833374 2.8230414,14.4833374 C2.8156384,14.4833374 2.80823918,14.4833212 2.80084376,14.4832889 L2.80020544,4.52758621 Z" id="Combined-Shape-Copy" transform="translate(5.300561, 9.505462) rotate(-180.000000) translate(-5.300561, -9.505462) "></path><path d="M7.8230414,4.52758621 C10.5722462,4.52758621 12.800917,6.75625702 12.800917,9.50546179 C12.800917,12.2546666 10.5722462,14.4833374 7.8230414,14.4833374 C7.8156384,14.4833374 7.80823918,14.4833212 7.80084376,14.4832889 L7.80020544,4.52758621 Z" id="Combined-Shape-Copy-2" transform="translate(10.300561, 9.505462) rotate(-360.000000) translate(-10.300561, -9.505462) "></path><path d="M12.0133192,4.28918119 L14.0928948,4.28918119 L14.0928948,3.24939338 C14.0928948,2.67513443 13.6273659,2.20960558 13.053107,2.20960558 C12.4788481,2.20960558 12.0133192,2.67513443 12.0133192,3.24939338 L12.0133192,4.28918119 L12.0133192,4.28918119 Z" id="Stroke-1-Copy-4" transform="translate(13.053107, 3.249393) rotate(-319.000000) translate(-13.053107, -3.249393) "></path><path d="M6.23872685,1.18832892 L9.20954915,1.18832892 C9.53769712,1.18832892 9.80371362,0.922312433 9.80371362,0.594164462 C9.80371362,0.266016491 9.53769712,-1.01892765e-16 9.20954915,0 L6.23872685,0 C5.91057888,6.02798043e-17 5.64456238,0.266016491 5.64456238,0.594164462 C5.64456238,0.922312433 5.91057888,1.18832892 6.23872685,1.18832892 Z" id="Stroke-3"></path><path d="M13.6657826,9.50663138 C13.6657826,6.2251635 11.0056059,3.56498677 7.724138,3.56498677 C4.44267012,3.56498677 1.78249338,6.2251635 1.78249338,9.50663138 C1.78249338,12.7880993 4.44267012,15.448276 7.724138,15.448276 C11.0056059,15.448276 13.6657826,12.7880993 13.6657826,9.50663138 Z M15.448276,9.50663138 C15.448276,13.7725432 11.9900498,17.2307694 7.724138,17.2307694 C3.4582262,17.2307694 0,13.7725432 0,9.50663138 C0,5.24071959 3.4582262,1.78249338 7.724138,1.78249338 C11.9900498,1.78249338 15.448276,5.24071959 15.448276,9.50663138 Z" id="Stroke-5" fill-rule="nonzero"></path></g><g id="90'" transform="translate(7.800000, 10.000000)" fill="#1D1E1F" fill-rule="nonzero"><path d="M1.7863496,2.85506779 C1.59103513,3.04692537 1.36288017,3.14285415 1.10188473,3.14285415 C0.76829453,3.14285415 0.501249525,3.02834456 0.300749715,2.79932539 C0.100249905,2.57030621 0,2.26134637 0,1.87244588 C0,1.62527801 0.0540139574,1.39841939 0.162041872,1.19187001 C0.270069787,0.985320639 0.420876756,0.824575102 0.61446278,0.7096334 C0.808048803,0.594691699 1.02583308,0.537220848 1.26781561,0.537220848 C1.51671192,0.537220848 1.73795309,0.599444927 1.93153912,0.723893085 C2.12512514,0.848341243 2.2755,1.02723547 2.38266369,1.26057577 C2.48982738,1.49391606 2.54427345,1.76096107 2.5460019,2.06171078 L2.5460019,2.33912647 C2.5460019,2.96828104 2.38957748,3.46261678 2.07672863,3.82213368 C1.76387979,4.18165058 1.32053323,4.37350816 0.746688947,4.39770641 L0.56260938,4.40029908 L0.56260938,3.77546562 L0.728540258,3.77287295 C1.38016464,3.74348936 1.73276775,3.43755431 1.7863496,2.85506779 Z M1.2859643,2.56987409 C1.40695556,2.56987409 1.51109447,2.53876205 1.59838103,2.47653798 C1.68566758,2.4143139 1.75178067,2.33912647 1.79672028,2.25097569 L1.79672028,1.94244796 C1.79672028,1.68836631 1.74832377,1.49132339 1.65153076,1.35131921 C1.55473775,1.21131504 1.42510425,1.14131295 1.26263027,1.14131295 C1.11225541,1.14131295 0.988671477,1.2100187 0.891878465,1.34743021 C0.795085453,1.48484172 0.746688947,1.65725427 0.746688947,1.86466787 C0.746688947,2.07035302 0.793789118,2.23930867 0.88798946,2.37153484 C0.982189802,2.50376101 1.11484808,2.56987409 1.2859643,2.56987409 Z" id="Shape"></path><path d="M5.62090846,2.80321439 C5.62090846,3.32520527 5.51288055,3.72447645 5.29682472,4.00102791 C5.08076889,4.27757937 4.76446316,4.4158551 4.34790752,4.4158551 C3.93653722,4.4158551 3.62195993,4.28017204 3.40417565,4.00880592 C3.18639138,3.7374398 3.07490657,3.3485393 3.06972123,2.84210444 L3.06972123,2.14726889 C3.06972123,1.62009267 3.17904548,1.21995727 3.39769398,0.946862701 C3.61634248,0.673768133 3.93135188,0.537220848 4.34272218,0.537220848 C4.75409248,0.537220848 5.06866976,0.672471798 5.28645404,0.942973696 C5.50423832,1.2134756 5.61572313,1.60194398 5.62090846,2.10837884 L5.62090846,2.80321439 Z M4.87162685,2.04096942 C4.87162685,1.72812058 4.82884779,1.50039774 4.74328968,1.35780089 C4.65773158,1.21520404 4.52420907,1.14390562 4.34272218,1.14390562 C4.16642062,1.14390562 4.03635501,1.21174715 3.95252535,1.34743021 C3.86869569,1.48311327 3.82418819,1.6952801 3.81900285,1.98393068 L3.81900285,2.90173585 C3.81900285,3.20939935 3.86091768,3.43798642 3.94474734,3.58749705 C4.028577,3.73700769 4.16296373,3.811763 4.34790752,3.811763 C4.53112286,3.811763 4.66334903,3.74003247 4.74458602,3.5965714 C4.82582301,3.45311033 4.86816995,3.2335976 4.87162685,2.93803323 L4.87162685,2.04096942 Z" id="Shape"></path><path d="M6.05579937,0.991222571 L5.8,0.842633229 C5.90783699,0.673354232 5.96363636,0.498432602 5.96739812,0.317868339 L5.96739812,0 L6.4,0 L6.4,0.29153605 C6.4,0.404388715 6.36865204,0.526645768 6.30595611,0.65830721 C6.24326019,0.789968652 6.15987461,0.900940439 6.05579937,0.991222571 Z" id="Path"></path><g id="+" transform="translate(6.235066, 1.288579)"><polygon id="Path" points="1.43436871 0.880436683 2.24725271 0.880436683 2.24725271 1.46814506 1.43436871 1.46814506 1.43436871 2.3868616 0.815135753 2.3868616 0.815135753 1.46814506 0 1.46814506 0 0.880436683 0.815135753 0.880436683 0.815135753 0 1.43436871 0"></polygon></g></g></g></svg>